<svg width="200" height="200" viewBox="0 0 200 200" fill="none" xmlns="http://www.w3.org/2000/svg">
<path fill-rule="evenodd" clip-rule="evenodd" d="M102.212 199.944C101.484 199.96 100.755 199.968 100.024 199.968C99.2764 199.969 98.5309 199.961 97.7874 199.944H102.212ZM106.207 199.779C158.555 196.574 200.013 153.115 200 99.9842L200 99.9366C199.987 44.7302 155.205 -0.0127922 99.9766 2.74348e-06C44.7477 0.0135973 -0.0131971 44.7778 2.91877e-06 99.9842V100.031C0.012318 153.146 41.4666 196.576 93.7935 199.779V116.879C86.9103 114.351 82.0002 107.741 82.0002 99.9842C82.0002 90.047 90.0587 81.9914 100 81.9914C109.941 81.9914 118 90.047 118 99.9842C118 107.741 113.09 114.351 106.207 116.879V199.779Z" fill="#156DD1"/>
</svg>
